<svg xmlns="http://www.w3.org/2000/svg" width="103.06" height="126.126" viewBox="0 0 103.06 126.126"><g transform="translate(-54.813 -59)"><g transform="translate(25.467 30.499)"><g transform="translate(29.346 28.501)"><path d="M50.848,48.361c-.749,0-1.355.41-1.355.906s.606.9,1.355.9,1.351-.405,1.351-.9S51.6,48.361,50.848,48.361Z" transform="translate(-26.881 -26.071)" fill="#e50019"/><path d="M29.346,28.5V88.1H130.472V28.5ZM113,64.776l-7.1-4.268a84.879,84.879,0,0,1-9.143,3.755l-1.131,14.8-4.958,1.1c.286-2.324,1.115-3.625,2.5-3.927l-.529-10.67c-1.7.483-3.379.892-5.014,1.231l-.859,11.056-5.028,1.1c.284-2.327,1.13-3.628,2.533-3.932l-.386-7.554a61.554,61.554,0,0,1-12.306.666L70.533,80.876l-5.292,1.1c.312-2.318,1.192-3.626,2.667-3.928l-.553-10.293a48.181,48.181,0,0,1-4.771-.841l-.937,12.147-4.989,1.1c.285-2.324,1.122-3.625,2.517-3.927l-.526-10.392a40.628,40.628,0,0,1-6.961-2.959A48.591,48.591,0,0,1,63.353,61.5c-5.442-1.813-11.3-2.163-15.368-.939a23.008,23.008,0,0,1-6.594-7.082A60.549,60.549,0,0,1,69.178,46.3a33.974,33.974,0,0,1,16.27-11.677,30.956,30.956,0,0,0-2.3,12.82q3.184.554,6.345,1.385a17.533,17.533,0,0,1,6.835-3.356,18.861,18.861,0,0,0-1.6,4.881A100.608,100.608,0,0,1,104.9,54.3l13.529-8.88Q115.7,55.091,113,64.776Z" transform="translate(-29.346 -28.501)" fill="#e50019"/></g><g transform="translate(29.371 95.018)"><path d="M36.3,87.766H29.368v31.487H36.3c4.858,0,6.972-3.193,6.972-7.826V95.593C43.267,90.96,41.153,87.766,36.3,87.766Zm4.9,23.75c0,3.464-1.439,5.848-4.947,5.848H31.438V89.655H36.25c3.464,0,4.947,2.384,4.947,5.848Z" transform="translate(-29.368 -87.766)" fill="#e50019"/></g><g transform="translate(46.284 94.749)"><path d="M51.319,87.526c-4.768,0-6.882,3.373-6.882,7.961v16.1c0,4.588,2.115,7.962,6.882,7.962,4.858,0,6.972-3.374,6.972-7.962v-16.1C58.292,90.9,56.177,87.526,51.319,87.526Zm4.9,24.2c0,3.419-1.394,5.937-4.9,5.937-3.464,0-4.813-2.519-4.813-5.937V95.352c0-3.419,1.349-5.937,4.813-5.937,3.509,0,4.9,2.519,4.9,5.937Z" transform="translate(-44.437 -87.526)" fill="#e50019"/></g><path d="M66.259,87.526c-4.814,0-6.793,3.419-6.793,7.961v16.1c0,4.543,1.979,7.962,6.793,7.962s6.791-3.419,6.791-7.962v-8.547H66.888v1.889h4.183v6.793c0,3.374-1.3,5.892-4.768,5.892s-4.769-2.519-4.769-5.892V95.352c0-3.374,1.305-5.937,4.769-5.937s4.768,2.563,4.768,5.937v2.474H73.05V95.487C73.05,90.945,71.071,87.526,66.259,87.526Z" transform="translate(3.686 7.223)" fill="#e50019"/><path d="M118.912,87.766v14.8h-9.806v-14.8h-2.069v31.487h2.069v-14.8h9.806v14.8h2.114V87.766Z" transform="translate(9.507 7.252)" fill="#e50019"/><path d="M94.413,95.218c0-3.329,1.259-5.8,4.677-5.8s4.679,2.519,4.679,5.848v.81h1.979V95.4c0-4.543-1.934-7.871-6.7-7.871-4.632.045-6.7,3.1-6.7,7.826,0,8.771,11.381,8.907,11.381,16.464,0,3.373-1.305,5.8-4.769,5.8s-4.768-2.429-4.768-5.8v-1.755H92.209v1.62c0,4.543,1.979,7.872,6.791,7.872s6.793-3.329,6.793-7.872C105.793,103,94.413,102.864,94.413,95.218Z" transform="translate(7.693 7.223)" fill="#e50019"/><rect width="2.069" height="31.487" transform="translate(94.774 95.019)" fill="#e50019"/><path d="M74.415,119.253h2.069V104.994h8.142V103.1H76.484V89.655h9.9V87.766H74.415Z" transform="translate(5.515 7.252)" fill="#e50019"/></g><path d="M.56,0H3c1.54,0,2.3-.854,2.3-2.422V-7.378C5.292-8.946,4.536-9.8,3-9.8H.56ZM2.968-8.4c.49,0,.784.252.784.952v5.1c0,.7-.294.952-.784.952H2.1v-7ZM7.252,0h1.54V-9.8H7.252ZM13.2-4.06h.7v1.806c0,.7-.308.952-.8.952s-.8-.252-.8-.952V-7.546c0-.7.308-.966.8-.966s.8.266.8.966V-6.5h1.456v-.952c0-1.568-.784-2.464-2.3-2.464s-2.3.9-2.3,2.464v5.1c0,1.568.784,2.464,2.3,2.464s2.3-.9,2.3-2.464V-5.46H13.2ZM17.332,0h1.54V-9.8h-1.54Zm3.192-8.4h1.61V0h1.54V-8.4h1.61V-9.8h-4.76Zm9.3-1.4H27.566L26,0h1.414l.266-1.778h1.89L29.834,0h1.554Zm-1.2,1.736.742,4.956H27.874Zm.21-3.808-.952,1.554H28.91l1.428-1.554ZM33.082,0h4.074V-1.4H34.622V-9.8h-1.54ZM42.1,0H43.68V-9.8H42.308v5.866L40.726-9.8H38.794V0H40.18V-7.1Zm3.668,0h1.54V-9.8h-1.54Zm.91-11.872-.952,1.554H46.76l1.428-1.554Zm9.3,2.072H53.718L52.15,0h1.414l.266-1.778h1.89L55.986,0H57.54Zm-1.2,1.736.742,4.956H54.026Zm6.776,4h.7v1.806c0,.7-.308.952-.8.952s-.8-.252-.8-.952V-7.546c0-.7.308-.966.8-.966s.8.266.8.966V-6.5H63.7v-.952c0-1.568-.784-2.464-2.3-2.464s-2.3.9-2.3,2.464v5.1c0,1.568.784,2.464,2.3,2.464s2.3-.9,2.3-2.464V-5.46H61.544Zm5.67-4.34h2.66V-9.8h-4.2V0h4.2V-1.4h-2.66V-4.27h2.114v-1.4H67.214ZM75.1,0h1.582V-9.8H75.306v5.866L73.724-9.8H71.792V0h1.386V-7.1Zm3.22-8.4h1.61V0h1.54V-8.4h1.61V-9.8h-4.76Zm6.342-1.4v7.462c0,1.568.784,2.464,2.3,2.464s2.3-.9,2.3-2.464V-9.8H87.794v7.56c0,.7-.308.952-.8.952s-.8-.252-.8-.952V-9.8ZM96.068,0A2.886,2.886,0,0,1,95.9-1.19V-2.7c0-1.022-.252-1.764-1.022-2.086a1.954,1.954,0,0,0,1.008-1.988v-.77C95.886-9.058,95.2-9.8,93.6-9.8H91.28V0h1.54V-3.99h.532c.7,0,1.008.336,1.008,1.246V-1.2A3.014,3.014,0,0,0,94.5,0ZM93.562-8.4c.546,0,.784.308.784,1.008v.966c0,.784-.35,1.036-.924,1.036h-.6V-8.4ZM101.3-9.8H99.05L97.482,0H98.9l.266-1.778h1.89L101.318,0h1.554Zm-1.2,1.736.742,4.956H99.358Z" transform="translate(55 185)" fill="#707070"/></g></svg>